<svg xmlns="http://www.w3.org/2000/svg" width="73.923" height="73.923" viewBox="0 0 73.923 73.923"><defs><style>.a{fill:#c8102e;stroke:#c8102e;}</style></defs><g transform="translate(0.5 0.5)"><path class="a" d="M172.935,357.168A36.461,36.461,0,1,1,209.4,320.706,36.5,36.5,0,0,1,172.935,357.168Zm0-69.34a32.879,32.879,0,1,0,32.879,32.879A32.916,32.916,0,0,0,172.935,287.828Z" transform="translate(-136.473 -284.245)"/><g transform="translate(19.713 20.84)"><g transform="translate(2.257 22.025)"><path class="a" d="M233.1,450.245c-7.991,0-14.492-5.87-14.492-13.084a1.7,1.7,0,0,1,3.383,0c0,5.53,4.983,10.029,11.108,10.029s11.108-4.5,11.108-10.029a1.7,1.7,0,0,1,3.383,0C247.595,444.376,241.094,450.245,233.1,450.245Z" transform="translate(-218.612 -435.634)"/></g><ellipse class="a" cx="5.739" cy="5.739" rx="5.739" ry="5.739"/><g transform="translate(22.018)"><ellipse class="a" cx="5.739" cy="5.739" rx="5.739" ry="5.739"/></g></g></g></svg>