<svg xmlns="http://www.w3.org/2000/svg" width="85.19" height="81.104" viewBox="0 0 85.19 81.104"><defs><style>.a{fill:#c8102e;stroke-width:1.5px;}.a,.b{stroke:#c8102e;}.b{fill:none;stroke-linecap:round;stroke-linejoin:round;stroke-width:4.5px;}</style></defs><g transform="translate(2.25 0.75)"><g transform="translate(0 0)"><path class="a" d="M273.381,276.164l12.134-12.134a1.561,1.561,0,0,0-1.1-2.665H246.376v-1.879a1.8,1.8,0,0,0-3.6,0v53.5a1.8,1.8,0,0,0,3.6,0V290.962h38.035a1.561,1.561,0,0,0,1.1-2.665Zm-27.417-11.677h34.679L270.07,275.06a1.561,1.561,0,0,0,0,2.208l10.573,10.573H245.964Z" transform="translate(-212.632 -257.685)"/><path class="b" d="M56.049,515.145,71.9,496.164l7.887,7.427,16.928-21.251,15.254,21.251,7.844-7.427,16.923,18.981Z" transform="translate(-56.049 -437.042)"/></g></g></svg>