<svg xmlns="http://www.w3.org/2000/svg" width="82.757" height="74.835" viewBox="0 0 82.757 74.835"><defs><style>.a{fill:#c8102e;stroke:#c8102e;}</style></defs><g transform="translate(0.5 0.5)"><path class="a" d="M112.635,178.617a24.813,24.813,0,0,0-16,5.832A24.871,24.871,0,0,0,59.79,217.078a6.732,6.732,0,0,0,4.919,11.335,6.852,6.852,0,0,0,1.187-.105,6.726,6.726,0,0,0,6.628,7.921,6.847,6.847,0,0,0,1.019-.076A6.726,6.726,0,0,0,80.2,243.9a6.843,6.843,0,0,0,1.187-.105,6.737,6.737,0,0,0,11.393,5.951l.619-.619,1.435,1.435a6.445,6.445,0,0,0,10.991-4.1,6.447,6.447,0,0,0,9.106-6.681,6.579,6.579,0,0,0,.827.054,6.439,6.439,0,0,0,6.393-7.275,6.574,6.574,0,0,0,.827.054,6.445,6.445,0,0,0,5.459-9.882c2.236-2.25,3.474-3.524,3.7-3.808a24.936,24.936,0,0,0,2.741-4.3,24.622,24.622,0,0,0,2.632-11.144A24.9,24.9,0,0,0,112.635,178.617ZM85.5,247.5a3.57,3.57,0,0,1-.534-4.341,3.524,3.524,0,0,1,.534-.692l.675-.675,1.522-1.522.614-.614.056-.056,3.085-3.085a3.533,3.533,0,0,1,2.076-1.008h0a3.61,3.61,0,0,1,.44-.03,3.548,3.548,0,0,1,2.516,1.038h0a3.555,3.555,0,0,1,1.008,2.957h0a3.533,3.533,0,0,1-.986,2.052l-.022.024L93.4,244.635l-2.248,2.248-.619.619a3.527,3.527,0,0,1-.713.546A3.562,3.562,0,0,1,85.5,247.5Zm-7.816-7.816a3.57,3.57,0,0,1-.511-4.379,3.523,3.523,0,0,1,.511-.654l2.228-2.228,3.724-3.724a3.569,3.569,0,0,1,5.033,0h0a3.569,3.569,0,0,1,0,5.033l-3.745,3.745-2.208,2.208a3.523,3.523,0,0,1-.678.526,3.563,3.563,0,0,1-4.355-.526ZM62.193,224.2a3.573,3.573,0,0,1,0-5.033l2.343-2.343,3.61-3.61a3.57,3.57,0,0,1,5.033,0h0a3.569,3.569,0,0,1,0,5.033l-3.668,3.668L67.226,224.2a3.569,3.569,0,0,1-5.033,0Zm7.816,7.816h0a3.571,3.571,0,0,1-.482-4.428,3.53,3.53,0,0,1,.482-.605l2.267-2.267,3.686-3.685a3.569,3.569,0,0,1,5.033,0h0a3.569,3.569,0,0,1,0,5.033l-3.712,3.712-2.24,2.24a3.569,3.569,0,0,1-5.033,0ZM99.4,249.273a3.262,3.262,0,0,1-2.313-.954l-1.435-1.435,1.3-1.3,1.788-1.788a6.741,6.741,0,0,0,1.083-1.417q.108-.187.2-.381h0l1.178,1.178.514.514a3.282,3.282,0,0,1,0,4.627h0a3.243,3.243,0,0,1-.637.491A3.278,3.278,0,0,1,99.4,249.273Zm31.93-36.419a20.966,20.966,0,0,1-2.3,3.6c-.239.281-1.366,1.434-3.287,3.364l-8-7.993a1.588,1.588,0,0,0-2.159.081h0a1.589,1.589,0,0,0-.081,2.159l3.189,3.2h0l4.806,4.806,1.794,1.794a3.237,3.237,0,0,1,.776,1.254,3.263,3.263,0,0,1-4.158,4.146,3.237,3.237,0,0,1-1.245-.773l-1.8-1.8-5.489-5.489h0l-2.8-2.8h0a1.81,1.81,0,0,0-2.56,0l-.034.034a1.81,1.81,0,0,0,0,2.56l.1.1,8.176,8.176,1.81,1.81a3.238,3.238,0,0,1,.768,1.231,3.279,3.279,0,0,1-.768,3.4h0a3.262,3.262,0,0,1-2.314.954,3.3,3.3,0,0,1-1.108-.2,3.236,3.236,0,0,1-1.2-.759l-1.829-1.829-5.461-5.461h0l-2.8-2.8h0a1.811,1.811,0,0,0-2.56,0l-.033.034a1.81,1.81,0,0,0,0,2.56l.186.186,8.059,8.059,1.842,1.842a3.238,3.238,0,0,1,.751,1.183,3.279,3.279,0,0,1-.751,3.444h0a3.261,3.261,0,0,1-2.313.954,3.3,3.3,0,0,1-1.165-.215,3.236,3.236,0,0,1-1.149-.739l-1.867-1.867-3.924-3.924a6.726,6.726,0,0,0-4.57-4.57c-.078-.023-.156-.045-.235-.065a4.254,4.254,0,0,0-.91-.162,6.709,6.709,0,0,0-1.936.063,6.726,6.726,0,0,0-6.628-7.921,6.859,6.859,0,0,0-1.019.076,6.727,6.727,0,0,0-6.657-7.752,6.85,6.85,0,0,0-1.187.105A6.738,6.738,0,0,0,65.9,210.962l-3.226,3.227c-.262-.439-.51-.887-.739-1.344a20.681,20.681,0,0,1-2.205-9.352,20.893,20.893,0,0,1,34.463-15.9h0l-13.1,12.723-.025.025a4.644,4.644,0,0,0-1.532,4.413c.432,1.578,1.891,2.7,4.334,3.349a15.329,15.329,0,0,0,4,.568,17.063,17.063,0,0,0,6.415-1.378l.07-.03a22.889,22.889,0,0,0,5.386-3.6,8.82,8.82,0,0,1,2.14-1.522,9,9,0,0,1,3.044.477,18.616,18.616,0,0,0,6.418.79l.076-.007c.285-.031,7.023-.821,10.6-5.41a1.669,1.669,0,0,0-2.632-2.053c-2.6,3.335-7.864,4.084-8.307,4.142a15.37,15.37,0,0,1-5.3-.689,11.34,11.34,0,0,0-4.377-.557l-.158.026a9.054,9.054,0,0,0-3.646,2.242,19.88,19.88,0,0,1-4.591,3.108,11.918,11.918,0,0,1-8.288.667c-1.495-.394-1.926-.858-1.966-1-.033-.119.094-.579.678-1.176l13.605-13.256.982-.884a20.9,20.9,0,0,1,33.306,24.3Z" transform="translate(-55.753 -178.617)"/></g></svg>