<svg xmlns="http://www.w3.org/2000/svg" width="88.841" height="49.982" viewBox="0 0 88.841 49.982"><defs><style>.a{fill:#4a4a4a;}</style></defs><path class="a" d="M277.087,559.412a6.54,6.54,0,0,0-.3-1.944q-3.666-11.454-7.379-22.893c-.637-1.968-1.414-2.523-3.474-2.523q-8.413,0-16.826.006-24.544,0-49.09,0c-2.052,0-2.788.53-3.452,2.443q-3.971,11.444-7.928,22.894a6.656,6.656,0,0,0-.356,2.1c-.026,6.852-.016,13.7-.015,20.555,0,1.588.389,1.971,2.005,1.971h42.324v.008q21.292,0,42.585,0c1.506,0,1.923-.434,1.923-1.979C277.1,573.173,277.109,566.292,277.087,559.412Zm-19.04-24.194c1.376,3.091,4.086,4.114,7.161,4.468.8.092,1.183.288,1.4,1.116.93,3.512,1.948,7,2.931,10.5.061.216.092.441.114.543a41.256,41.256,0,0,0-4.492,1.248,3.375,3.375,0,0,0-2.374,3.583H236.018c1.583-.49,3.558-.992,5.444-1.727a12.817,12.817,0,0,0,3.179-1.9,7.906,7.906,0,0,0,1.886-11.033c-2.3-3.634-5.775-5.543-9.868-6.479a5.609,5.609,0,0,1-1.077-.315ZM231.3,539.69c-.1-.814.349-1.086,1.089-1.052.259.012.52-.012.78,0,1.41.042,1.586-.289,1.762,1.529l3.722.625c-.181.524-.319.89-.434,1.263-.2.641-.55.755-1.239.672-1.559-.188-3.14-.206-4.713-.274a.888.888,0,0,0-.564.185c-.225.19-.534.448-.539.684a.923.923,0,0,0,.51.688c.944.345,1.924.588,2.881.9,1.23.4,2.482.752,3.666,1.261a2.432,2.432,0,0,1-.063,4.567c-1.04.47-2.157.77-3.343,1.179-.21,1.838-.21,1.838-2.164,1.82-.2,0-.405,0-.607,0-1.1-.021-1.248-.168-1.265-1.239,0-.143-.014-.286-.022-.466l-4.9-.743a7.068,7.068,0,0,1,.874-1.728,1.734,1.734,0,0,1,1.22-.236c1.634.119,3.262.324,4.9.438a2.809,2.809,0,0,0,1.346-.246,1.53,1.53,0,0,0,.832-.85c.047-.232-.388-.7-.706-.839a17.429,17.429,0,0,0-2.132-.683c-1.294-.39-2.615-.708-3.877-1.185a2.276,2.276,0,0,1-1.733-2.055,2.536,2.536,0,0,1,1.543-2.416,11.621,11.621,0,0,1,2.417-.9C231.064,540.441,231.371,540.289,231.3,539.69Zm-34.287,8.237c.715-2.344,1.49-4.672,2.134-7.035a1.361,1.361,0,0,1,1.5-1.224,8.473,8.473,0,0,0,5.124-1.865,24.979,24.979,0,0,0,2.375-2.593H230.2a51.109,51.109,0,0,0-5.021,1.74,12.828,12.828,0,0,0-6.59,6.248,7.731,7.731,0,0,0,2.385,9.966,17.171,17.171,0,0,0,8.512,3.362.724.724,0,0,1,.41.14H202.66a3.32,3.32,0,0,0-1.137-2.808,7.984,7.984,0,0,0-4.295-1.669c-.425-.058-.859-.055-1.464-.091C196.206,550.618,196.6,549.27,197.011,547.927Zm-5.922,11.951h83.194v2.672H191.089Zm83.208,5.561v2.644H191.091v-2.644Zm-83.21,5.547h83.163v2.672H191.086ZM274.3,579.18H191.1v-2.634H274.3Z" transform="translate(-188.261 -532.052)"/></svg>