<svg xmlns="http://www.w3.org/2000/svg" width="93.094" height="79.531" viewBox="0 0 93.094 79.531"><defs><style>.a{fill:#c8102e;stroke:#c8102e;stroke-miterlimit:10;}</style></defs><g transform="translate(0.501 0.512)"><g transform="translate(35.828)"><path class="a" d="M563.622,77.622a3.3,3.3,0,0,1-2.22-1.106q-2.554-2.445-5.105-4.912l-1.967-1.9A1.786,1.786,0,0,1,554,67.572a3.96,3.96,0,0,0-.993-5.406,3.27,3.27,0,0,0-2.913-.735,6.072,6.072,0,0,0-2.86,1.875l-.088.083a1.786,1.786,0,0,1-2.495-.061l-7.47-7.669a1.784,1.784,0,0,1-.286-2.1,14.136,14.136,0,0,0,1.749-5.058,10.735,10.735,0,0,0-5.48-11.07,16.937,16.937,0,0,0-6.546-2.122,3.187,3.187,0,0,1-3.114-2.5c-.161-.733-.268-2.548,2.185-3.632a24.376,24.376,0,0,1,19.99.006,24.1,24.1,0,0,1,8.67,6.115c2.629,2.895,5.393,5.773,8.064,8.556l1.3,1.356a4.994,4.994,0,0,1,1.552,4.139,9.418,9.418,0,0,0,.015,1.429l.021.408c.048.974.4,1.331,1.349,1.365,1.168.041,2.328.021,3.409-.007a3.93,3.93,0,0,1,2.986,1.237q1.8,1.843,3.613,3.665l1.818,1.837c1.6,1.614,1.6,3.165.008,4.741q-6.309,6.251-12.644,12.473A3.248,3.248,0,0,1,563.622,77.622Zm-5.909-9.61,1.061,1.023c1.616,1.559,3.222,3.108,4.834,4.651q6.11-6,12.2-12.034l-1.679-1.7c-1.215-1.226-2.432-2.451-3.635-3.688-.159-.163-.206-.164-.336-.159-1.082.028-2.359.05-3.629.005a4.686,4.686,0,0,1-4.787-4.756l-.019-.377a12.189,12.189,0,0,1,0-2.005c.043-.408-.037-.735-.578-1.3l-1.3-1.355c-2.689-2.8-5.47-5.7-8.132-8.628a21.92,21.92,0,0,0-23.378-5.746,20.221,20.221,0,0,1,6.62,2.385,14.343,14.343,0,0,1,7.237,14.607,16.754,16.754,0,0,1-1.555,5.145l5.383,5.526a7.31,7.31,0,0,1,3.507-1.705,6.807,6.807,0,0,1,5.838,1.574A7.4,7.4,0,0,1,557.713,68.012Z" transform="translate(-523.431 -27.034)"/></g><g transform="translate(6.811 25.888)"><path class="a" d="M494.756,113.6h-.007a8.437,8.437,0,0,1-8.655-10.015,11.549,11.549,0,0,1,3.8-7.054q5.07-4.618,10.13-9.245,7.29-6.663,14.6-13.309c2.651-2.406,6.425-5.675,9.125-7.993,1.491-1.28,2.824-2.418,3.786-3.235,1.954-1.661,2.765-2.347,3.93-1.246l.015.014c1.247,1.2,2.48,2.45,3.673,3.657s2.418,2.445,3.654,3.636a1.785,1.785,0,0,1,.084,2.483c-2.679,2.955-4.131,4.545-6.956,7.579q-10.973,11.8-21.972,23.566l-6.988,7.486A10.894,10.894,0,0,1,494.756,113.6Zm35.389-48.39c-2.686,2.276-9.213,7.856-13.128,11.41q-7.311,6.633-14.59,13.3-5.065,4.628-10.133,9.249a7.957,7.957,0,0,0-2.665,4.917,5.281,5.281,0,0,0,1.081,4.281,5.225,5.225,0,0,0,4.042,1.662h.005a7.358,7.358,0,0,0,5.6-2.54L507.348,100q10.991-11.774,21.968-23.56c2.378-2.556,3.779-4.081,5.77-6.273-.841-.831-1.667-1.668-2.476-2.486S530.975,66.034,530.144,65.212Z" transform="translate(-485.988 -60.97)"/></g><g transform="translate(0 8.211)"><path class="a" d="M501.351,77.821h-.018a1.778,1.778,0,0,1-1.281-.56c-.525-.556-3.656-3.93-5.167-5.668-.143-.165-.2-.232-.716-.188a20.629,20.629,0,0,1-9.184-.94A17.208,17.208,0,0,1,473.549,56.51a22.49,22.49,0,0,1-.2-5.485,11.339,11.339,0,0,1,.7-2.863c.111-.321.22-.64.313-.957a1.784,1.784,0,0,1,2.949-.792l1.554,1.486c1.151,1.1,2.266,2.157,3.359,3.239.858.849,1.7,1.714,2.541,2.579.651.671,1.3,1.342,1.963,2,.568.57.754.574,1.321.019l.159-.154c1.417-1.375,2.834-2.751,4.223-4.154.575-.582.621-.723-.024-1.382l-.446-.455c-2.326-2.376-4.653-4.753-7.006-7.1a10.854,10.854,0,0,0-1.123-.918c-.225-.169-.45-.337-.668-.511a1.785,1.785,0,0,1,.109-2.871,12.4,12.4,0,0,1,7.963-1.934,17.426,17.426,0,0,1,16.957,14.086,15.546,15.546,0,0,1-.183,7.594c-.111.385-.112.43.2.743,1.42,1.433,2.555,2.69,3.755,4.022.57.632,1.149,1.274,1.776,1.952a1.783,1.783,0,0,1-.037,2.459c-1.791,1.831-3.727,3.516-5.6,5.145-1.839,1.6-3.742,3.258-5.477,5.028A1.784,1.784,0,0,1,501.351,77.821Zm-6.929-10a3.976,3.976,0,0,1,3.156,1.428c.978,1.124,2.655,2.955,3.828,4.225,1.433-1.369,2.911-2.656,4.352-3.91,1.46-1.271,2.857-2.488,4.193-3.766l-.64-.709c-1.172-1.3-2.278-2.526-3.64-3.9a4.025,4.025,0,0,1-1.091-4.245,12.011,12.011,0,0,0,.122-5.863,13.786,13.786,0,0,0-13.586-11.261,12.543,12.543,0,0,0-3.517.263c2.322,2.32,4.617,4.665,6.913,7.01l.445.456a4.192,4.192,0,0,1,.009,6.389c-1.405,1.42-2.838,2.812-4.271,4.2l-.157.153a4.193,4.193,0,0,1-6.339-.06c-.67-.673-1.332-1.354-1.993-2.035-.825-.849-1.65-1.7-2.49-2.53-.908-.9-1.828-1.779-2.773-2.68-.016.1-.029.2-.037.3a18.952,18.952,0,0,0,.161,4.608,13.677,13.677,0,0,0,9.191,11.231,17.1,17.1,0,0,0,7.608.718C494.037,67.833,494.224,67.823,494.422,67.823Z" transform="translate(-473.269 -36.236)"/></g><g transform="translate(35.451 44.972)"><path class="a" d="M545.835,120.417a9.515,9.515,0,0,1-6.847-2.912q-3.748-3.891-7.449-7.825-1.771-1.873-3.545-3.741l-1.782-1.88c-.838-.885-1.651-1.744-2.64-2.781a1.785,1.785,0,0,1,0-2.465l10.413-10.886a1.786,1.786,0,0,1,2.5-.074c.108.1.449.457,4.47,4.686,3.494,3.675,8.29,8.721,11.36,11.92a9.353,9.353,0,0,1,.486,12.741,9.037,9.037,0,0,1-6.628,3.212C546.065,120.415,545.95,120.417,545.835,120.417ZM526.992,99.649c.51.536.987,1.041,1.474,1.556l1.778,1.876q1.778,1.871,3.551,3.747,3.7,3.912,7.425,7.8a5.941,5.941,0,0,0,4.491,1.816,5.388,5.388,0,0,0,4.013-1.927,5.819,5.819,0,0,0-.317-7.988c-3.073-3.2-7.874-8.253-11.372-11.933l-3.1-3.256Z" transform="translate(-523.078 -87.374)"/></g></g></svg>